<?xml version="1.0" standalone="no"?>
<!DOCTYPE svg PUBLIC "-//W3C//DTD SVG 20010904//EN"
 "http://www.w3.org/TR/2001/REC-SVG-20010904/DTD/svg10.dtd">
<svg version="1.0" xmlns="http://www.w3.org/2000/svg"
 width="1024.000000pt" height="1024.000000pt" viewBox="0 0 1024.000000 1024.000000"
 preserveAspectRatio="xMidYMid meet">

<g transform="translate(0.000000,1024.000000) scale(0.100000,-0.100000)"
fill="#000000" stroke="none">
<path d="M3009 7727 c-51 -35 -77 -90 -89 -193 -5 -49 -10 -118 -10 -153 0
-62 -1 -65 -43 -106 -32 -32 -59 -48 -111 -64 -117 -36 -205 -26 -451 54 -174
56 -295 78 -395 72 -131 -9 -222 -45 -308 -122 -77 -69 -104 -122 -110 -210
-4 -62 -1 -80 20 -126 46 -100 115 -160 235 -205 85 -32 212 -42 309 -24 38 7
146 34 239 60 236 67 271 73 363 68 65 -4 94 -11 146 -37 93 -46 102 -62 110
-203 10 -189 31 -251 99 -302 l28 -21 2062 -3 c1134 -1 2072 0 2084 3 37 9 91
63 107 108 17 46 36 189 36 278 0 71 20 99 103 141 49 24 78 31 142 35 69 4
99 0 220 -32 77 -20 192 -50 255 -66 207 -54 359 -50 488 13 85 42 145 98 179
166 38 77 40 184 4 251 -52 99 -175 186 -307 217 -135 32 -235 15 -634 -108
-45 -14 -96 -21 -165 -22 -94 -1 -104 1 -167 32 -105 52 -114 66 -122 216 -8
136 -24 208 -57 250 -47 60 113 56 -2152 56 l-2074 0 -34 -23z m1826 -341 c67
-32 225 -184 260 -249 11 -20 22 -37 25 -37 3 0 14 17 25 37 33 63 192 215
260 248 53 27 70 30 150 30 79 0 97 -4 142 -27 68 -36 120 -90 151 -156 22
-48 24 -64 20 -147 -3 -82 -8 -101 -40 -166 -88 -178 -251 -318 -583 -504
l-120 -67 -62 31 c-99 49 -307 175 -388 236 -112 85 -207 193 -257 294 -42 84
-43 88 -43 186 0 87 3 106 25 149 32 64 115 138 176 159 76 26 184 19 259 -17z"/>
<path d="M5029 5680 c-215 -26 -387 -115 -540 -278 -255 -271 -307 -661 -133
-990 118 -224 297 -366 546 -434 117 -32 364 -32 482 0 347 95 593 380 636
740 35 282 -95 589 -327 773 -181 144 -438 217 -664 189z m271 -88 c161 -56
266 -152 355 -323 159 -307 133 -754 -60 -1024 -130 -183 -362 -264 -594 -210
-211 50 -385 244 -452 504 -61 239 -38 512 61 718 99 204 245 320 450 357 50
9 186 -3 240 -22z"/>
<path d="M1210 5614 c0 -17 8 -22 42 -27 85 -11 117 -57 129 -187 11 -106 10
-1157 0 -1223 -11 -70 -37 -99 -109 -122 -44 -14 -62 -25 -62 -37 0 -17 20
-18 290 -18 278 0 290 1 290 19 0 13 -9 21 -32 25 -52 10 -95 42 -118 87 -20
38 -22 57 -22 268 0 367 -5 329 50 399 26 34 49 61 52 61 3 0 117 -169 254
-375 260 -391 307 -449 384 -472 23 -7 103 -12 191 -12 144 0 151 1 151 20 0
14 -7 20 -22 20 -41 0 -126 48 -172 96 -69 72 -631 885 -624 903 6 18 332 373
395 431 73 67 162 116 229 126 31 4 44 11 44 23 0 14 -26 16 -255 16 -250 0
-255 0 -255 -20 0 -16 7 -21 32 -23 60 -5 83 -23 86 -68 3 -35 -3 -48 -40 -95
-45 -57 -488 -552 -498 -557 -7 -3 -3 528 5 583 11 76 66 128 145 137 16 2 26
10 28 23 3 20 -3 20 -293 20 -294 0 -295 0 -295 -21z"/>
<path d="M2778 5632 c-24 -2 -38 -8 -38 -17 0 -7 17 -19 38 -26 59 -19 92 -41
115 -79 l22 -35 0 -645 c0 -642 0 -645 -22 -692 -22 -49 -65 -84 -115 -94 -14
-4 -28 -15 -31 -25 -5 -18 5 -19 289 -19 281 0 294 1 294 19 0 15 -10 20 -45
26 -57 8 -111 53 -125 103 -6 21 -10 159 -10 320 l0 282 93 0 92 0 32 -54 c18
-29 105 -168 193 -307 249 -394 234 -381 478 -387 156 -4 162 -3 162 16 0 15
-9 21 -34 26 -52 10 -146 86 -213 173 -65 84 -387 563 -381 567 1 2 31 13 66
26 129 47 232 134 278 235 52 113 54 229 4 332 -43 90 -90 137 -183 183 -147
72 -158 73 -562 74 -198 1 -377 0 -397 -2z m707 -83 c79 -30 154 -100 191
-182 26 -56 29 -72 29 -172 0 -98 -3 -116 -26 -165 -53 -113 -123 -164 -271
-194 -42 -9 -118 -16 -168 -16 l-90 0 0 375 0 374 58 3 c121 8 217 0 277 -23z"/>
<path d="M5960 5620 c0 -10 17 -20 48 -28 86 -23 152 -105 358 -453 100 -167
204 -348 232 -401 l51 -97 -3 -233 c-3 -255 -9 -285 -62 -327 -15 -12 -48 -27
-71 -34 -30 -8 -43 -16 -43 -29 0 -17 18 -18 285 -18 270 0 285 1 285 18 0 13
-12 22 -39 30 -48 15 -86 45 -109 85 -14 28 -17 69 -20 292 l-3 260 187 340
c103 187 207 371 232 408 56 83 107 126 186 152 38 13 61 26 61 35 0 13 -35
15 -237 15 -211 0 -237 -2 -241 -16 -4 -13 5 -18 33 -23 21 -3 53 -18 70 -33
31 -25 32 -29 28 -88 -3 -51 -12 -76 -54 -151 -28 -49 -106 -189 -175 -311
-68 -123 -127 -223 -131 -223 -3 0 -44 64 -89 143 -45 78 -131 223 -192 321
-60 99 -113 193 -118 209 -18 62 39 127 111 127 16 0 21 5 18 23 l-3 22 -297
0 c-262 0 -298 -2 -298 -15z"/>
<path d="M8030 5613 c-6 -15 -71 -188 -145 -383 -74 -195 -184 -490 -246 -655
-164 -443 -204 -511 -311 -530 -28 -5 -38 -12 -38 -26 0 -18 11 -19 245 -19
238 0 245 1 245 20 0 15 -7 20 -25 20 -43 0 -94 27 -115 62 -33 54 -27 117 26
270 25 73 53 154 62 181 l16 47 305 0 306 0 72 -198 c88 -237 88 -240 70 -284
-16 -37 -55 -61 -118 -73 -30 -6 -36 -10 -32 -26 5 -18 19 -19 313 -19 296 0
308 1 303 19 -3 11 -21 23 -44 30 -51 16 -108 67 -141 128 -27 49 -109 251
-294 723 -57 146 -145 371 -197 500 l-94 235 -76 3 c-76 3 -77 3 -87 -25z m23
-230 c3 -10 64 -170 136 -356 72 -186 131 -343 131 -348 0 -5 -113 -9 -276 -9
-154 0 -274 4 -272 9 2 5 62 169 133 365 72 196 133 356 136 356 4 0 9 -8 12
-17z"/>
<path d="M4050 3601 c-8 -5 -33 -12 -55 -16 l-40 -8 27 -10 c35 -14 40 -27 32
-102 l-7 -63 -33 14 c-47 20 -91 17 -141 -7 -116 -56 -134 -252 -30 -330 44
-33 128 -34 174 -1 39 28 43 28 43 -4 0 -27 -1 -27 80 1 31 11 33 14 15 21
-11 4 -23 12 -27 18 -4 6 -8 120 -8 254 0 133 -3 242 -7 242 -5 0 -15 -4 -23
-9z m-90 -206 c43 -22 50 -43 50 -158 0 -89 -3 -106 -19 -121 -50 -45 -138
-19 -167 49 -18 45 -18 138 1 175 18 35 61 70 87 70 10 0 32 -7 48 -15z"/>
<path d="M5165 3590 c-58 -18 -59 -18 -29 -25 41 -9 44 -23 44 -240 0 -186 -5
-234 -26 -241 -48 -14 -39 -19 46 -24 95 -6 136 1 83 15 -15 3 -31 12 -35 18
-4 7 -8 126 -8 265 0 138 -3 251 -7 251 -5 -1 -35 -9 -68 -19z"/>
<path d="M2250 3581 c0 -6 8 -11 19 -11 41 0 46 -24 49 -228 4 -242 2 -259
-41 -270 l-32 -9 49 -8 c71 -11 243 1 300 21 73 25 150 104 170 173 20 68 20
94 1 159 -20 65 -63 115 -129 150 -48 25 -61 27 -218 30 -118 3 -168 1 -168
-7z m333 -44 c82 -49 125 -180 97 -297 -17 -70 -76 -132 -142 -148 -60 -15
-121 -15 -136 0 -9 9 -12 76 -12 239 0 259 -7 240 93 234 38 -2 71 -11 100
-28z"/>
<path d="M5520 3580 c0 -5 10 -10 23 -10 45 0 47 -11 47 -252 l0 -229 -32 -14
c-18 -8 -31 -14 -28 -15 43 -4 200 -4 200 0 0 3 -13 11 -30 17 l-30 11 0 116
0 116 140 0 140 0 0 -103 c0 -111 -13 -147 -52 -147 -12 0 -19 -3 -16 -6 9 -8
198 -10 198 -1 0 4 -6 7 -14 7 -8 0 -22 7 -30 16 -14 13 -16 48 -16 230 0 222
5 254 40 254 10 0 22 5 25 10 4 6 -32 10 -100 10 -68 0 -104 -4 -100 -10 3 -5
15 -10 25 -10 31 0 40 -32 40 -134 l0 -96 -140 0 -140 0 -1 83 c-2 127 4 147
42 147 10 0 21 5 24 10 4 6 -33 10 -104 10 -67 0 -111 -4 -111 -10z"/>
<path d="M2955 3416 c-37 -17 -80 -62 -94 -99 -14 -36 -14 -118 0 -154 33 -89
160 -139 252 -99 39 16 82 61 96 99 14 36 14 118 0 154 -33 89 -163 139 -254
99z m129 -27 c78 -62 87 -233 14 -294 -105 -88 -223 92 -162 245 27 67 96 90
148 49z"/>
<path d="M3315 3409 c-49 -17 -49 -18 -24 -27 33 -13 39 -35 39 -157 0 -123
-4 -139 -38 -152 -22 -9 -10 -11 68 -12 85 0 92 1 71 13 -35 19 -40 37 -40
154 -1 101 0 104 28 133 23 22 39 29 69 29 65 0 76 -22 80 -152 4 -121 -1
-158 -23 -158 -7 0 -17 -4 -20 -10 -4 -6 26 -10 82 -10 84 1 87 2 61 16 -26
14 -28 19 -28 82 -1 169 -6 202 -36 233 -47 50 -134 48 -190 -3 -22 -19 -22
-19 -32 11 -6 17 -12 30 -14 30 -2 -1 -25 -10 -53 -20z"/>
<path d="M4294 3420 c-87 -27 -140 -168 -100 -263 18 -44 78 -95 121 -103 74
-14 147 21 181 87 19 38 10 37 -37 -6 -32 -29 -47 -35 -83 -35 -71 0 -126 61
-126 140 l0 30 125 0 c112 0 125 2 125 18 -1 31 -38 100 -64 117 -32 21 -99
28 -142 15z m101 -33 c18 -15 27 -33 28 -57 l2 -35 -87 -3 c-49 -1 -88 1 -88
6 0 30 27 77 54 93 40 25 59 24 91 -4z"/>
<path d="M4855 3416 c-132 -59 -142 -277 -15 -344 81 -42 165 -20 218 58 28
42 20 51 -16 18 -64 -60 -124 -65 -178 -15 -31 28 -37 41 -42 85 l-5 52 126 0
127 0 -7 33 c-19 102 -115 154 -208 113z m102 -21 c23 -16 48 -78 38 -95 -3
-5 -44 -10 -91 -10 -95 0 -101 7 -64 68 30 49 78 64 117 37z"/>
<path d="M6235 3411 c-48 -22 -69 -44 -90 -94 -52 -125 28 -255 163 -265 208
-14 277 273 87 359 -51 24 -109 24 -160 0z m139 -32 c39 -34 56 -79 56 -151 0
-102 -53 -167 -125 -154 -42 8 -73 43 -91 101 -20 68 -18 114 9 165 37 75 94
90 151 39z"/>
<path d="M6596 3410 l-49 -17 29 -14 29 -14 3 -138 3 -138 -33 -14 c-31 -13
-27 -14 72 -14 97 0 102 2 70 13 l-35 13 -3 119 c-2 104 0 123 18 152 24 38
42 41 64 7 19 -28 38 -32 56 -10 19 23 4 64 -26 71 -30 8 -91 -18 -100 -41
-10 -24 -21 -18 -27 15 -7 34 -5 33 -71 10z"/>
<path d="M6914 3411 l-42 -16 29 -26 c28 -26 29 -30 29 -122 0 -125 -7 -154
-39 -172 -24 -13 -20 -14 62 -15 56 0 86 4 82 10 -3 6 -12 10 -20 10 -21 0
-25 24 -25 145 l0 113 31 27 c25 21 40 25 73 23 60 -4 76 -41 76 -175 0 -115
-4 -133 -31 -133 -10 0 -19 -4 -19 -10 0 -6 35 -10 88 -9 74 0 83 2 62 12 -14
6 -28 16 -32 22 -4 5 -8 67 -8 136 0 111 -2 129 -20 152 -42 53 -132 59 -189
12 -16 -14 -31 -25 -34 -25 -2 0 -7 14 -10 30 -7 34 -7 34 -63 11z"/>
<path d="M7445 3419 c-71 -27 -115 -94 -115 -178 0 -87 31 -138 105 -172 99
-46 218 -2 254 94 31 80 -1 188 -67 232 -46 30 -129 41 -177 24z m111 -28 c83
-51 97 -233 22 -296 -85 -72 -187 29 -176 175 5 65 27 106 69 127 33 17 49 16
85 -6z"/>
<path d="M7798 3149 c-26 -15 -22 -48 7 -61 37 -16 43 -53 15 -83 -13 -14 -31
-27 -41 -30 -10 -3 -16 -12 -13 -19 15 -38 107 39 118 98 10 52 -23 107 -62
106 -4 0 -15 -5 -24 -11z"/>
<path d="M4210 2824 c-19 -7 -46 -13 -60 -14 -24 -1 -24 -1 6 -14 37 -16 43
-33 36 -107 l-4 -56 -39 14 c-117 40 -229 -51 -229 -186 0 -143 128 -228 234
-156 46 31 46 31 46 -1 0 -18 4 -25 14 -21 8 3 33 11 56 18 l42 13 -26 13 -26
14 0 244 c0 134 -3 246 -7 248 -5 2 -24 -2 -43 -9z m-46 -215 c25 -20 26 -23
26 -134 0 -111 -1 -114 -26 -134 -45 -36 -113 -20 -148 34 -42 63 -26 203 27
240 31 22 89 19 121 -6z"/>
<path d="M2906 2809 c-22 -32 -6 -63 33 -67 25 -3 33 2 43 22 9 22 8 29 -7 46
-23 26 -50 25 -69 -1z"/>
<path d="M7515 2810 c-15 -17 -16 -24 -7 -46 10 -20 18 -25 43 -22 42 4 57 40
29 68 -25 25 -42 25 -65 0z"/>
<path d="M1590 2810 c0 -5 9 -10 19 -10 45 0 51 -31 51 -250 0 -113 -4 -211
-9 -219 -5 -8 -22 -20 -38 -27 -24 -10 2 -12 169 -15 l197 -4 15 60 c8 33 13
61 11 64 -3 2 -24 -16 -47 -42 -47 -50 -79 -60 -163 -55 -46 3 -50 5 -56 33
-4 17 -7 69 -8 117 l-1 86 69 4 c38 2 67 0 65 -4 -2 -4 0 -9 6 -13 5 -3 10
-17 10 -31 0 -13 5 -24 10 -24 6 0 10 35 10 85 0 50 -4 85 -10 85 -5 0 -10
-11 -10 -25 0 -30 -20 -41 -92 -49 l-58 -6 0 110 c0 81 3 110 13 111 21 2 60
2 106 0 38 -1 50 -7 83 -42 22 -23 42 -39 45 -36 3 3 0 28 -7 55 l-11 49 -185
1 c-117 1 -184 -2 -184 -8z"/>
<path d="M4930 2811 c0 -5 12 -11 28 -13 l27 -3 -2 -208 c-3 -225 -13 -277
-52 -277 -11 0 -23 -4 -26 -10 -4 -6 29 -10 92 -9 89 1 95 2 69 14 -17 7 -33
21 -37 31 -9 24 -9 245 0 339 7 67 8 69 19 40 58 -143 189 -429 198 -432 11
-4 26 32 135 317 29 74 55 139 59 144 10 10 20 -118 23 -289 2 -125 1 -129
-21 -141 -43 -21 -35 -24 67 -24 66 0 100 4 96 10 -3 6 -14 10 -24 10 -10 0
-23 6 -29 13 -5 6 -15 108 -21 225 -12 224 -9 252 29 252 10 0 22 5 25 10 4 6
-23 10 -74 10 l-79 0 -28 -72 c-73 -196 -114 -300 -127 -324 l-14 -28 -20 45
c-10 24 -50 119 -88 211 l-70 167 -77 1 c-43 0 -78 -4 -78 -9z"/>
<path d="M2092 2641 l-44 -18 26 -17 27 -17 -3 -137 c-3 -133 -4 -137 -25
-140 -13 -2 -23 -8 -23 -13 0 -5 38 -9 85 -9 86 0 104 7 63 25 -22 9 -23 17
-26 120 -3 134 0 150 38 170 45 23 85 19 109 -11 19 -24 21 -40 21 -151 0
-123 0 -124 -25 -133 -14 -5 -25 -12 -25 -15 0 -3 38 -5 85 -5 83 0 111 11 60
24 l-25 6 0 128 c0 104 -3 132 -17 152 -40 59 -100 73 -168 40 -25 -12 -45
-26 -45 -31 0 -22 -18 -6 -23 21 -7 34 -7 34 -65 11z"/>
<path d="M2623 2649 c-102 -31 -152 -174 -98 -280 54 -103 218 -117 279 -24
25 37 15 40 -30 10 -76 -52 -170 -13 -193 80 -24 97 27 195 103 195 37 0 56
-15 56 -45 0 -44 50 -62 70 -24 13 23 -6 61 -38 78 -29 15 -114 21 -149 10z"/>
<path d="M2910 2640 c-54 -18 -54 -19 -5 -35 12 -4 15 -28 15 -138 0 -137 -5
-157 -42 -157 -10 0 -18 -4 -18 -10 0 -6 38 -10 95 -10 52 0 95 4 95 9 0 5
-12 11 -27 13 l-28 3 -2 150 c-3 152 -7 196 -21 194 -4 -1 -32 -9 -62 -19z"/>
<path d="M3195 2646 c-139 -51 -156 -274 -25 -343 74 -39 151 -25 203 36 43
51 34 69 -13 27 -33 -30 -48 -36 -84 -36 -71 0 -126 61 -126 140 l0 30 125 0
c141 0 141 0 106 77 -33 71 -105 98 -186 69z m108 -35 c10 -10 20 -33 23 -52
l6 -34 -85 0 c-47 0 -89 3 -92 7 -4 3 1 23 11 43 29 61 93 78 137 36z"/>
<path d="M3502 2641 l-44 -18 26 -16 c26 -17 26 -18 26 -152 l0 -135 -27 -12
c-28 -12 -28 -12 14 -16 23 -2 64 -2 90 0 47 3 47 4 21 16 l-28 12 0 124 0
124 31 26 c19 16 43 26 62 26 65 0 77 -27 77 -180 0 -119 0 -121 -25 -130 -14
-5 -25 -12 -25 -15 0 -3 38 -5 85 -5 50 0 85 4 85 10 0 6 -9 10 -19 10 -27 0
-31 18 -31 145 0 65 -5 125 -12 139 -26 59 -104 79 -173 46 -25 -12 -45 -26
-45 -31 0 -22 -18 -6 -23 21 -7 34 -7 34 -65 11z"/>
<path d="M4465 2641 c-48 -22 -69 -44 -90 -94 -35 -84 -7 -196 59 -236 75 -47
161 -37 216 25 46 53 39 74 -10 30 -32 -29 -48 -36 -81 -36 -77 0 -129 54
-129 134 l0 36 124 0 123 0 -7 38 c-10 56 -27 80 -70 102 -48 25 -83 25 -135
1z m112 -23 c13 -10 36 -79 29 -86 -3 -2 -43 -4 -90 -5 -94 -2 -98 1 -70 54
25 50 92 68 131 37z"/>
<path d="M5779 2651 c-122 -39 -170 -212 -86 -308 73 -84 182 -85 251 -3 42
50 32 68 -14 26 -33 -30 -48 -36 -84 -36 -73 0 -126 62 -126 148 0 22 2 22
125 22 140 0 137 -1 109 70 -27 68 -105 104 -175 81z m94 -40 c10 -10 20 -33
23 -53 l6 -36 -86 2 c-47 1 -88 5 -92 8 -12 13 29 77 59 92 35 17 63 13 90
-13z"/>
<path d="M6072 2641 l-44 -18 26 -17 27 -17 -3 -137 c-3 -133 -4 -137 -25
-140 -13 -2 -23 -8 -23 -13 0 -5 38 -9 85 -9 47 0 85 2 85 5 0 3 -11 10 -25
15 -25 9 -25 10 -25 139 0 128 0 130 26 150 37 29 85 27 114 -4 19 -20 24 -39
28 -104 7 -118 -3 -169 -36 -184 -26 -11 -25 -12 21 -15 26 -2 67 -1 90 1 34
3 38 5 20 11 -28 10 -33 31 -33 163 0 109 1 112 26 132 33 26 84 27 115 2 22
-18 24 -28 27 -131 4 -131 -1 -160 -28 -160 -11 0 -20 -4 -20 -10 0 -6 35 -10
85 -10 47 0 85 4 85 9 0 5 -10 11 -22 13 -22 3 -23 7 -28 140 -5 127 -7 138
-29 162 -49 52 -118 56 -186 10 l-35 -24 -21 21 c-46 46 -117 48 -176 3 l-31
-24 -7 30 c-7 34 -5 34 -63 11z"/>
<path d="M6833 2649 c-51 -15 -99 -69 -113 -128 -22 -94 9 -172 86 -217 87
-51 215 -19 259 65 81 158 -61 329 -232 280z m133 -55 c34 -38 44 -70 44 -146
0 -90 -41 -148 -106 -148 -68 0 -115 72 -115 177 0 77 21 126 64 147 42 20 75
11 113 -30z"/>
<path d="M7215 2644 c-16 -7 -40 -13 -52 -14 -32 0 -28 -14 7 -27 l30 -11 0
-125 c0 -138 -4 -157 -30 -157 -11 0 -22 -4 -25 -10 -4 -6 29 -10 92 -9 89 1
95 2 69 14 -17 7 -33 20 -36 30 -3 9 -5 65 -3 123 2 86 6 111 21 132 25 33 45
36 57 8 20 -45 85 -25 70 22 -15 47 -96 46 -130 -3 -16 -23 -19 -22 -31 14 -9
24 -11 25 -39 13z"/>
<path d="M7515 2640 c-49 -17 -50 -18 -23 -28 24 -10 27 -16 33 -94 6 -84 2
-179 -10 -198 -3 -5 -15 -10 -25 -10 -10 0 -22 -4 -25 -10 -4 -6 28 -10 89
-10 57 0 96 4 96 10 0 6 -8 10 -19 10 -35 0 -40 23 -43 185 -2 95 -7 159 -13
161 -5 1 -32 -6 -60 -16z"/>
<path d="M7784 2649 c-62 -18 -92 -77 -52 -102 23 -15 48 8 48 44 0 22 6 32
26 39 58 23 104 -16 104 -87 l0 -42 -56 -11 c-78 -16 -119 -35 -143 -66 -71
-90 46 -182 158 -124 l43 21 15 -20 c17 -26 74 -28 97 -5 21 20 21 41 1 24
-35 -29 -43 -7 -47 132 -4 150 -11 169 -71 193 -41 17 -76 18 -123 4z m126
-237 c0 -47 -4 -63 -20 -77 -46 -41 -130 -12 -130 45 0 32 25 57 77 76 68 24
73 21 73 -44z"/>
<path d="M8173 2653 c-30 -6 -71 -46 -79 -77 -12 -48 12 -82 87 -121 84 -44
99 -58 99 -95 0 -89 -123 -75 -166 19 -11 22 -22 41 -26 41 -5 0 -8 -25 -8
-56 0 -54 1 -55 37 -71 26 -10 59 -14 106 -11 63 3 72 7 98 36 36 40 38 87 8
127 -12 15 -55 42 -95 60 -59 27 -75 39 -80 61 -6 21 -2 31 16 46 35 29 84 24
114 -13 14 -17 26 -37 26 -45 0 -8 5 -14 11 -14 8 0 10 13 5 38 -3 20 -6 44
-6 53 0 11 -11 16 -37 17 -21 1 -49 3 -63 5 -14 3 -35 3 -47 0z"/>
</g>
</svg>
